<?xml version="1.0" encoding="UTF-8"?>
<svg version="1.1" viewBox="0 0 2048 2048" width="1280" height="1280" xmlns="http://www.w3.org/2000/svg">
<path transform="translate(0)" d="m0 0h2048v2048h-2048z" fill="#FEFEFE"/>
<path transform="translate(1046,936)" d="m0 0h19l18 2 17 4 17 6 16 8 11 7 11 9 10 9 9 11 10 15 9 19 8 24 5 25 1 9v43l-3 23-6 27-9 27-11 25-11 19-10 14-9 11-15 15-17 13-19 11-21 8-14 3-8 1h-22l-21-3-19-5-21-9-16-10-10-8-10-9-10-11-10-14-8-14-7-14-7-20-5-19-4-27-1-26 2-28 4-23 7-25 8-20 8-16 9-15 10-13 9-10 12-12 15-11 14-8 15-7 18-6 14-3z" fill="#020000"/>
<path transform="translate(1612,957)" d="m0 0h16l12 3 10 6 6 8 4 10 1 5v24l-14 84-6 46-2 26v35l2 18 4 16 7 17 1 4v15l-6 12-10 10-11 7-10 3h-20l-14-4-14-6-11-7-10-8-10-9-10-13-3-5v-2l-5 5-11 13-12 13-13 12-18 13-15 8-18 6-11 2h-19l-18-4-19-9-14-10-14-12-13-13-9-11-11-15-12-20-11-22-9-24-7-24-5-22-4-27-2-23v-48l2-17 4-16 5-12 5-9 9-11 12-9 11-5 12-3h14l13 4 10 6 9 9 7 14 1 4v14l-4 14-8 21-3 14-2 19-1 27 2 33 4 27 5 23 6 15 7 11 8 8 12 7 10 3 7 1h11l16-3 16-7 14-10 11-11 9-12 9-15 8-18 7-21 9-36 11-35 11-28 12-25 9-15 8-11 9-10 7-7 11-7z"/>
<path transform="translate(434,674)" d="m0 0h23l13 4 8 5 8 8 5 10 3 11 1 9v9l-3 20-9 39-14 57-9 45-6 44-3 35-1 22v39l2 40 4 29 5 19 7 17 7 11 9 11 13 10 16 8 18 6 23 4 11 1h62l35-3 37-6 29-7 24-7 21-7 27-11 15-7 8-1 8 3 5 6 1 3v9l-6 25-7 19-8 16-7 12-12 16-11 12-11 11-17 13-16 10-19 10-21 8-20 6-19 4-27 3h-32l-26-3-22-5-19-6-15-6-16-8-18-11-12-9-14-12-12-12-11-14-10-14-10-18-8-16-9-24-7-25-5-27-3-28v-58l3-32 4-28 7-36 8-32 12-36 11-30 14-38 7-24 1-10-3-10-6-7-15-9-10-7-7-7-4-11v-9l3-10 7-10 9-6z"/>
<path transform="translate(938,617)" d="m0 0 11 1 584 130 5 3 2 6-3 5-2 1-13-1-19-3-1 3v10l1 3 3 1 20 1 7 1 4 5-1 6-3 3h-17l6 13 2 9v11l-3 12-5 9-7 9-6 9-1 3v10l5 10 7 8 5 8 4 11 1 6v10l-3 12-6 11-10 11-2 1h-6l-5-3-2-4 1-8 9-11 4-10v-10l-6-12-8-10-7-14-1-4v-14l4-11 9-14 7-10 2-6v-9l-4-9-9-13-22-1 6 13 2 9v11l-3 12-6 11-9 11-4 8v10l5 10 7 8 5 8 4 11 1 6v10l-3 12-6 11-10 11-2 1h-6l-5-3-2-4 1-7 11-16 2-6v-10l-6-12-11-14-5-14v-14l4-11 6-10 9-12 3-8v-9l-4-9-9-13-22-1 6 13 2 9v11l-3 12-7 12-10 13-2 5v10l5 10 7 8 5 8 4 11 1 5v11l-3 12-6 11-10 11-8 1-5-3-2-4 1-7 11-16 2-6v-9l-4-10-12-16-5-11-1-4v-14l4-11 7-11 9-13 2-6v-9l-4-9-9-13-479-1-3-3v-16l2-20 5-5 27 1 434 21 5 1v-11l4-12 5-8-14-2-158-27-220-38-75-13-4-5 1-9 7-26z" fill="#D92C2A"/>
<path transform="translate(1038,975)" d="m0 0h26l19 4 15 6 13 7 11 8 12 11 9 10 10 15 8 16 6 17 4 17 2 20v26l-3 25-6 24-8 20-8 15-12 17-12 13-10 9-15 10-16 8-15 5-16 3h-24l-16-3-16-6-14-8-11-9-13-13-11-15-11-21-7-19-5-21-2-13v-39l4-22 5-17 8-18 9-15 9-10 5-5 9-8 15-9 17-6 16-3h11l15 3 16 8 9 7 9 9 10 14 8 16 5 17 2 12v29l-3 17-5 16-9 19-8 11-9 10-8 7-10 6-9 3-5 1h-12l-13-4-10-6-9-9-8-14-5-16-1-9v-11l2-13 4-13 7-13 9-10 8-6 11-2 8 3 6 5 4 7 1 4v10l-4 11-7 11-4 6-2 10 4 10 6 4h7l9-6 7-8 7-15 3-13v-19l-4-15-6-11-9-10-14-7-5-1h-10l-11 3-11 6-11 10-10 14-8 16-5 15-3 18v22l3 17 5 15 9 16 11 13 10 8 16 8 13 3h16l16-4 15-8 11-9 12-12 10-14 9-16 7-17 6-21 3-22v-21l-3-22-6-21-8-18-10-16-13-15-12-10-14-8-12-5-15-5z" fill="#FEFEFE"/>
<path transform="translate(938,617)" d="m0 0 11 1 584 130 5 3 2 6-3 5-2 1-13-1-58-10-506-87-28-5-4-5 1-9 7-26z" fill="#020000"/>
<path transform="translate(922,748)" d="m0 0 27 1 434 21 6 2 4 13 4 7h-479l-3-3v-16l2-20z" fill="#010000"/>
<path transform="translate(580,1041)" d="m0 0h8l9 2 9 5 7 7 5 10 2 9v15l-4 16-7 13-5 6-9 6-8 3h-13l-11-4-8-6-6-8-5-13-1-6v-13l4-16 6-11 8-8 10-5z" fill="#D92C2A"/>
<path transform="translate(691,1035)" d="m0 0h9l13 4 8 6 6 8 4 11 1 7v9l-2 12-6 15-7 9-8 7-10 4h-13l-11-4-8-6-7-9-4-11-1-5v-18l4-14 6-10 8-8 10-5z" fill="#D92C2A"/>
<path transform="translate(1397,740)" d="m0 0 9 1 12 2 1 2-7 9-4 8v9l27 2 6 13 3 6h-22l6 13 2 9v11l-3 12-7 12-10 13-2 5v10l5 10 7 8 5 8 4 11 1 5v11l-3 12-6 11-10 11-8 1-5-3-2-4 1-7 11-16 2-6v-9l-4-10-12-16-5-11-1-4v-14l4-11 7-11 9-13 2-6v-9l-4-9-9-13-6-10-3-11v-12l4-12z" fill="#D92C2A"/>
<path transform="translate(1484,755)" d="m0 0 15 2 4 2-1 3v10l1 3 3 1 20 1 7 1 4 5-1 6-3 3h-17l6 13 2 9v11l-3 12-5 9-7 9-6 9-1 3v10l5 10 7 8 5 8 4 11 1 6v10l-3 12-6 11-10 11-2 1h-6l-5-3-2-4 1-8 9-11 4-10v-10l-6-12-8-10-7-14-1-4v-14l4-11 9-14 7-10 2-6v-9l-4-9-9-13-24-1-10-13-2-5h27v-14z" fill="#D92C2A"/>
<path transform="translate(1426,1360)" d="m0 0h17l10 4 8 6 6 9 3 8v16l-4 11-9 10-12 6-5 1h-11l-10-3-9-6-6-7-4-10-1-4v-12l4-11 4-6 9-8z" fill="#050101"/>
<path transform="translate(1290,1360)" d="m0 0h25l10 2 7 4 4 5 2 5v11l-4 8-9 6h-2l6 11 10 17v1h-14l-15-26v-2h-9v28h-12v-69z" fill="#0C0202"/>
<path transform="translate(1428,1370)" d="m0 0h13l10 5 6 9 1 3v16l-3 7-6 7-9 4h-10l-8-3-6-5-4-8-1-4v-12l4-10 8-7z" fill="#FEFEFE"/>
<path transform="translate(1627,1360)" d="m0 0h10l1 1v60h23v9h-35v-69z" fill="#0E0202"/>
<path transform="translate(1532,1360)" d="m0 0h11v61h24v9h-35z" fill="#040000"/>
<path transform="translate(1419,744)" d="m0 0 16 2 5 1-3 9-1 4-1 13h-12l-15-1-1-1v-9l5-10z" fill="#FEFEFE"/>
<path transform="translate(1460,751)" d="m0 0 10 1 14 3-1 5v15h-18l-10-1-1-2v-10l5-10z" fill="#FEFEFE"/>
<path transform="translate(1301,1370)" d="m0 0h18l6 4 1 2v11l-5 5-2 1h-18z" fill="#FEFEFE"/>
<path transform="translate(1407,772)" d="m0 0h16l12 1 6 13 3 6h-24l-10-13z" fill="#010000"/>
<path transform="translate(1455,774)" d="m0 0 26 1 3 2 4 9 3 6h-24l-10-13z" fill="#010000"/>
<path transform="translate(1504,777)" d="m0 0h22l7 1 4 5-1 6-3 3h-19l-10-13z" fill="#020000"/>
</svg>
