<?xml version="1.0" encoding="UTF-8"?>
<svg version="1.1" viewBox="0 0 2048 2048" width="1280" height="1280" xmlns="http://www.w3.org/2000/svg">
<path transform="translate(0)" d="m0 0h2048v2048h-2048z"/>
<path transform="translate(1047,936)" d="m0 0h16l19 2 21 5 16 6 19 10 11 8 10 9 5 4 9 11 9 13 8 15 9 24 5 20 3 22v41l-4 29-6 25-8 24-9 20-10 19-10 15-8 10-9 10-9 9-14 11-14 9-16 8-15 5-13 3-9 1h-21l-21-3-21-6-16-7-13-7-11-8-13-11-12-13-12-17-12-23-9-25-5-22-3-22v-43l3-22 5-23 8-24 13-27 9-14 10-13 9-10 11-11 15-11 16-9 16-7 20-6 17-3z" fill="#fff"/>
<path transform="translate(1612,957)" d="m0 0h15l12 3 8 4 7 7 5 10 2 9v22l-14 84-6 46-2 25v38l3 23 5 16 6 15v14l-4 10-9 10-9 7-11 5-5 1h-18l-15-4-12-5-16-10-10-9-7-6-10-13-3-5v-2l-5 5-12 14-12 13-11 10-16 12-14 8-18 7-16 3h-17l-15-3-15-6-11-6-12-9-14-12-11-11-9-11-10-13-11-18-12-23-8-20-8-24-6-26-4-24-3-32v-45l3-23 5-17 8-15 9-11 12-9 11-5 13-3h12l12 3 11 6 10 10 7 14 1 5v12l-4 15-6 15-4 14-3 24-1 17v15l2 29 4 28 6 25 7 16 8 11 11 8 12 5 10 2h13l15-3 12-5 12-7 13-12 9-10 9-14 9-17 8-22 12-46 9-29 13-33 11-23 11-18 11-14 11-11 11-7z" fill="#fff"/>
<path transform="translate(435,674)" d="m0 0h21l12 3 10 6 7 7 7 14 2 9 1 14-2 17-8 37-17 69-7 35-6 40-4 43-1 22v44l2 37 3 24 5 21 6 16 6 11 10 13 9 8 15 9 15 6 19 5 24 3h64l34-3 32-5 27-6 29-8 26-9 29-12 11-5 6-1 7 2 5 4 3 6v9l-6 25-8 21-12 23-10 14-11 13-14 14-14 11-15 10-18 10-24 10-23 7-26 5-21 2h-30l-26-3-23-5-27-9-25-12-16-10-16-12-15-14-12-13-12-16-12-20-12-25-7-19-6-22-5-24-3-23-1-13v-54l3-34 6-39 8-37 8-30 11-32 16-42 12-36 3-13-1-11-5-8-9-7-17-10-8-8-4-8-1-4v-9l4-12 7-9 10-6z" fill="#fff"/>
<path transform="translate(938,617)" d="m0 0 10 1 549 122 39 9 3 3 1 4-2 5-3 2-13-1-19-3-1 3v10l1 3 2 1 20 1 8 1 4 5-1 6-3 3h-17l6 13 2 9v11l-3 11-5 10-12 16-2 5v10l4 8 10 13 5 10 3 12v10l-3 12-6 11-10 11-8 1-5-3-2-4 1-7 11-16 2-5v-11l-6-12-8-10-7-14-1-4v-13l3-10 7-12 9-12 3-8v-9l-4-9-4-6-5-7-22-1 6 13 2 9v11l-3 12-7 12-8 10-4 8v10l5 10 7 8 8 16 2 10v9l-3 12-6 11-10 11-2 1h-6l-5-3-2-4 1-7 10-14 3-8v-9l-4-10-7-9-6-9-4-9-1-4v-14l4-11 9-14 7-10 2-6v-9l-4-9-9-13-22-1 6 13 2 9v11l-3 12-7 12-10 13-2 5v10l5 10 7 8 8 16 2 9v9l-3 13-6 11-10 11-2 1h-6l-5-3-2-4 1-8 8-10 4-8 1-3v-10l-6-12-8-10-7-14-1-4v-14l4-11 7-11 9-13 2-6v-9l-4-9-9-13-478-1-4-4v-14l2-21 3-4 7-1 454 22 7 1v-11l4-11 5-8-8-2-169-29-285-49-7-3-2-3 1-8 7-27z" fill="#D92C2A"/>
<path transform="translate(1038,975)" d="m0 0h27l18 4 13 5 17 9 14 11 12 12 10 13 10 18 6 15 5 19 2 12 1 11v29l-3 24-5 21-8 21-10 19-12 16-9 10-12 11-15 10-16 8-15 5-15 3h-26l-18-4-15-6-12-7-10-8-9-8-11-14-9-14-10-21-6-19-4-19-2-21v-13l2-21 5-22 7-19 9-17 9-12 9-10 13-10 16-8 15-5 12-2h13l14 3 10 4 13 9 12 12 10 15 7 14 5 16 2 12v31l-4 20-5 15-8 16-10 14-12 12-11 7-10 4-5 1h-14l-10-3-11-6-10-10-7-11-5-14-2-13v-13l3-17 7-16 7-10 5-5 8-6 7-2 9 1 6 4 5 6 3 7v11l-4 11-7 11-5 9v11l5 8 4 2h7l9-6 8-10 6-13 3-14v-17l-3-13-7-14-9-10-14-7-6-1h-8l-12 3-11 6-10 9-9 12-7 12-7 19-3 14-1 9v19l3 18 4 12 8 16 8 10 6 7 11 8 14 7 13 3h15l14-3 16-8 12-9 13-13 12-17 9-17 8-22 4-18 2-17v-19l-3-22-6-21-7-16-9-16-9-11-7-8-10-8-13-8-12-5-16-5z" fill="#010000"/>
<path transform="translate(938,617)" d="m0 0 10 1 549 122 39 9 3 3 1 4-2 5-3 2-13-1-69-12-39-7-43-7-400-69-40-7-5-5 1-8 7-27z" fill="#fff"/>
<path transform="translate(923,748)" d="m0 0 107 5 351 17 7 1 6 16 2 5h-477l-4-4v-14l2-21 3-4z" fill="#fff"/>
<path transform="translate(580,1041)" d="m0 0h8l9 2 9 5 7 7 5 10 2 9v15l-4 16-7 13-9 9-9 5-4 1h-13l-11-4-9-7-7-11-4-15v-14l4-15 6-11 8-8 10-5z" fill="#D92C2A"/>
<path transform="translate(691,1035)" d="m0 0h9l9 2 10 6 7 8 5 13 1 7v9l-3 15-5 12-7 9-8 7-10 4h-13l-10-3-9-7-7-9-4-11-1-5v-18l4-14 6-10 8-8 10-5z" fill="#D92C2A"/>
<path transform="translate(1398,740)" d="m0 0 16 2 5 2-10 15-1 3v9l27 2 5 12 3 5v2h-21l6 13 2 9v11l-3 12-7 12-10 13-2 5v10l5 10 7 8 8 16 2 9v9l-3 13-6 11-10 11-2 1h-6l-5-3-2-4 1-8 8-10 4-8 1-3v-10l-6-12-8-10-7-14-1-4v-14l4-11 7-11 9-13 2-6v-9l-4-9-11-16-5-10-2-7v-13l4-11 5-8z" fill="#D92C2A"/>
<path transform="translate(1484,755)" d="m0 0 16 2 3 2-1 3v10l1 3 2 1 20 1 8 1 4 5-1 6-3 3h-17l6 13 2 9v11l-3 11-5 10-12 16-2 5v10l4 8 10 13 5 10 3 12v10l-3 12-6 11-10 11-8 1-5-3-2-4 1-7 11-16 2-5v-11l-6-12-8-10-7-14-1-4v-13l3-10 7-12 9-12 3-8v-9l-4-9-4-6-5-7-24-1-6-8-6-9v-1l28 1-1-2v-13z" fill="#D92C2A"/>
<path transform="translate(1427,1360)" d="m0 0h16l12 5 8 7 6 12 1 4v15l-4 11-9 10-12 6-5 1h-10l-13-4-9-7-6-9-3-11v-10l3-10 5-8 9-8z" fill="#fff"/>
<path transform="translate(1290,1361)" d="m0 0h32l10 5 5 7 1 3v11l-4 8-9 6-2 1 16 27v1h-14l-14-25-1-3h-9v28h-11z" fill="#fff"/>
<path transform="translate(1428,1370)" d="m0 0h14l8 4 5 6 3 7 1 10-2 10-4 6-7 6-6 2h-11l-10-5-6-8-2-6v-13l3-8 7-8z" fill="#020000"/>
<path transform="translate(1626,1361)" d="m0 0h12v60h23v9h-35z" fill="#fff"/>
<path transform="translate(1532,1361)" d="m0 0h11v60h23l1 1v8h-35z" fill="#fff"/>
<path transform="translate(1419,744)" d="m0 0 11 1 10 2-3 9-1 4-1 13h-14l-13-1-1-1v-9l5-10z" fill="#020000"/>
<path transform="translate(1460,751)" d="m0 0 16 2 8 2-1 5v15h-20l-8-1-1-3v-9l5-10z" fill="#020000"/>
<path transform="translate(1301,1370)" d="m0 0h18l6 4 1 2v11l-5 5-2 1h-18z" fill="#020000"/>
<path transform="translate(1408,772)" d="m0 0h13l14 1 5 12 3 5v2h-23l-7-9-5-8z" fill="#fff"/>
<path transform="translate(1455,774)" d="m0 0 27 1 8 15 1 2h-24l-6-8-6-9z" fill="#fff"/>
<path transform="translate(1504,776)" d="m0 0 21 1 8 1 4 5-1 6-3 3h-19l-7-9-3-4z" fill="#fff"/>
</svg>
